<?xml version="1.0" encoding="UTF-8"?> <!-- Generator: Adobe Illustrator 24.0.1, SVG Export Plug-In . SVG Version: 6.00 Build 0) --> <svg xmlns="http://www.w3.org/2000/svg" xmlns:xlink="http://www.w3.org/1999/xlink" id="Layer_1" x="0px" y="0px" viewBox="0 0 232.9 111.3" style="enable-background:new 0 0 232.9 111.3;" xml:space="preserve"> <style type="text/css"> .st0{fill:#EFEFEF;} </style> <g> <path class="st0" d="M5.8,14h23.7c3.2,0,6.1,0.3,8.7,1c2.6,0.7,4.9,1.6,6.8,2.9c1.9,1.2,3.4,2.7,4.4,4.5c1.1,1.7,1.6,3.7,1.6,5.8 c0,1.3-0.1,2.5-0.4,3.6c-0.3,1.1-0.8,2.2-1.4,3.1c-0.7,1-1.5,1.9-2.6,2.8s-2.4,1.8-4,2.7c1.6,0.5,3.1,1.2,4.5,2.1 c1.4,0.9,2.5,1.9,3.5,3c1,1.2,1.8,2.4,2.3,3.8c0.6,1.4,0.8,2.9,0.8,4.5c0,2.2-0.5,4.2-1.5,6.1s-2.4,3.5-4.2,4.9 c-1.8,1.4-4,2.5-6.6,3.3s-5.4,1.2-8.5,1.2H5.8V14z M19.4,38h8.9c1.4,0,2.7-0.2,3.8-0.7c1.1-0.4,2.1-1.1,2.8-1.9 c0.8-0.8,1.4-1.8,1.8-2.9c0.4-1.1,0.6-2.3,0.6-3.6c0-1.4-0.3-2.8-0.8-3.9c-0.5-1.2-1.3-2.2-2.4-3.1c-1.1-0.9-2.4-1.5-4-2 s-3.6-0.7-5.8-0.7h-5V38H19.4z M19.4,63.5h7.5c2.2,0,4.1-0.2,5.7-0.7s2.9-1.1,4-2c1-0.8,1.8-1.8,2.3-3s0.8-2.4,0.8-3.8 c0-1.5-0.2-3-0.7-4.3s-1.2-2.5-2.3-3.4c-1-1-2.4-1.7-4.1-2.3c-1.7-0.5-3.8-0.8-6.2-0.8h-7C19.4,43.2,19.4,63.5,19.4,63.5z"></path> <path class="st0" d="M65,14h13.5v49.5h28.1v5.7H65V14z"></path> <path class="st0" d="M119.3,14l18.2,38.1L154.4,14h8.7l-24.8,56H132l-26.7-56H119.3z"></path> <path class="st0" d="M184.3,41.6c0,3.6,0.5,6.7,1.6,9.5c1.1,2.7,2.5,5,4.3,6.9s3.9,3.3,6.2,4.2c2.3,1,4.8,1.4,7.3,1.4 c1.9,0,3.7-0.3,5.4-1s3.2-1.6,4.7-2.7c1.5-1.1,2.8-2.5,4.1-3.9c1.3-1.5,2.5-3.1,3.7-4.7l5.7,4.1c-1.2,2-2.7,3.8-4.4,5.7 c-1.7,1.8-3.7,3.4-5.8,4.8s-4.5,2.5-7,3.3s-5.2,1.2-8,1.2c-4.7,0-9.1-0.7-13.1-2.1s-7.5-3.3-10.4-5.9c-2.9-2.5-5.2-5.6-6.8-9.1 s-2.4-7.5-2.4-11.8c0-4.2,0.8-8.1,2.3-11.6s3.7-6.6,6.5-9.1c2.8-2.6,6.2-4.6,10.1-6c3.9-1.4,8.3-2.2,13-2.2c3.2,0,6.1,0.4,8.7,1.1 c2.6,0.7,5,1.8,7.2,3.1s4.1,2.9,5.8,4.7c1.7,1.8,3.2,3.8,4.5,6l-5.7,4c-1.2-1.7-2.4-3.2-3.8-4.7c-1.4-1.5-2.8-2.7-4.4-3.8 c-1.5-1.1-3.2-2-4.9-2.6s-3.5-1-5.3-1c-2.5,0-4.9,0.5-7.2,1.4s-4.3,2.4-6,4.2c-1.7,1.9-3.1,4.2-4.1,6.9 C184.8,34.8,184.3,38,184.3,41.6z"></path> </g> <g> <path class="st0" d="M37.6,95.3c0-3.1,2.3-5.3,5.4-5.3c1.8,0,3.3,0.7,4.1,2.1L46,92.8c-0.7-1.1-1.8-1.6-3.1-1.6c-2.3,0-4,1.6-4,4.1 s1.7,4.1,4,4.1c1.2,0,2.3-0.5,3.1-1.5l1.1,0.7c-0.8,1.4-2.3,2.1-4.1,2.1C39.9,100.6,37.6,98.4,37.6,95.3z"></path> <path class="st0" d="M59.9,94v6.5h-1.4v-1.6c-0.6,1.1-1.9,1.7-3.6,1.7c-2.4,0-3.8-1.2-3.8-3.1c0-1.6,1-3,4.1-3h3.3V94 c0-1.8-1-2.8-3-2.8c-1.4,0-2.6,0.5-3.5,1.2l-0.6-1.1c1.1-0.9,2.6-1.4,4.3-1.4C58.3,89.9,59.9,91.3,59.9,94z M58.4,97.4v-1.7h-3.3 c-2,0-2.7,0.8-2.7,1.9c0,1.2,1,2,2.7,2C56.7,99.5,57.9,98.8,58.4,97.4z"></path> <path class="st0" d="M71,89.9v1.4c-0.1,0-0.2,0-0.3,0c-2.2,0-3.5,1.4-3.5,3.9v5.4h-1.4V90h1.4v2.1C67.7,90.7,69.1,89.9,71,89.9z"></path> <path class="st0" d="M81.9,95.3c0-3.1,2.3-5.3,5.4-5.3c1.8,0,3.3,0.7,4.1,2.1l-1.1,0.7c-0.7-1.1-1.8-1.6-3.1-1.6 c-2.3,0-4,1.6-4,4.1s1.7,4.1,4,4.1c1.2,0,2.3-0.5,3.1-1.5l1.1,0.7c-0.8,1.4-2.3,2.1-4.1,2.1C84.2,100.6,81.9,98.4,81.9,95.3z"></path> <path class="st0" d="M95,95.3c0-3.1,2.3-5.3,5.4-5.3s5.3,2.2,5.3,5.3c0,3.1-2.3,5.4-5.3,5.4S95,98.4,95,95.3z M104.3,95.3 c0-2.5-1.7-4.1-3.9-4.1s-3.9,1.6-3.9,4.1s1.7,4.1,3.9,4.1S104.3,97.7,104.3,95.3z"></path> <path class="st0" d="M120.3,94.4v6.1h-1.4v-6c0-2.2-1.2-3.4-3.2-3.4c-2.3,0-3.7,1.4-3.7,3.8v5.5h-1.4V90h1.4v2c0.8-1.3,2.2-2,4-2 C118.5,89.9,120.3,91.4,120.3,94.4z"></path> <path class="st0" d="M125.1,95.3c0-3.1,2.3-5.3,5.4-5.3c1.8,0,3.3,0.7,4.1,2.1l-1.1,0.7c-0.7-1.1-1.8-1.6-3.1-1.6 c-2.3,0-4,1.6-4,4.1s1.7,4.1,4,4.1c1.2,0,2.3-0.5,3.1-1.5l1.1,0.7c-0.8,1.4-2.3,2.1-4.1,2.1C127.4,100.6,125.1,98.4,125.1,95.3z"></path> <path class="st0" d="M139.1,86.7c0-0.5,0.5-1,1-1s1,0.4,1,1s-0.4,1-1,1C139.6,87.7,139.1,87.3,139.1,86.7z M139.4,90h1.4v10.5h-1.4 V90z"></path> <path class="st0" d="M156,95.7h-8.8c0.2,2.2,1.8,3.7,4.1,3.7c1.3,0,2.4-0.5,3.2-1.4l0.8,0.9c-0.9,1.1-2.4,1.7-4.1,1.7 c-3.3,0-5.5-2.2-5.5-5.4c0-3.1,2.2-5.3,5.1-5.3c3,0,5.1,2.2,5.1,5.3C156,95.4,156,95.6,156,95.7z M147.2,94.7h7.5 c-0.2-2.1-1.7-3.5-3.7-3.5C148.8,91.2,147.3,92.6,147.2,94.7z"></path> <path class="st0" d="M166.2,89.9v1.4c-0.1,0-0.2,0-0.3,0c-2.2,0-3.5,1.4-3.5,3.9v5.4H161V90h1.4v2.1 C162.9,90.7,164.2,89.9,166.2,89.9z"></path> <path class="st0" d="M180.4,90v9.2c0,3.6-1.8,5.3-5.3,5.3c-1.9,0-3.8-0.6-4.9-1.6l0.7-1.1c1,0.9,2.5,1.4,4.1,1.4 c2.7,0,3.9-1.2,3.9-3.8v-1.3c-0.9,1.3-2.4,2-4.1,2c-3,0-5.3-2.1-5.3-5.1s2.3-5.1,5.3-5.1c1.8,0,3.3,0.7,4.2,2.1v-2H180.4z M179,95 c0-2.3-1.7-3.8-4-3.8s-4,1.6-4,3.8c0,2.3,1.7,3.9,4,3.9S179,97.3,179,95z"></path> <path class="st0" d="M195.5,95.7h-8.8c0.2,2.2,1.8,3.7,4.1,3.7c1.3,0,2.4-0.5,3.2-1.4l0.8,0.9c-0.9,1.1-2.4,1.7-4.1,1.7 c-3.3,0-5.5-2.2-5.5-5.4c0-3.1,2.2-5.3,5.1-5.3c3,0,5.1,2.2,5.1,5.3C195.5,95.4,195.5,95.6,195.5,95.7z M186.7,94.7h7.5 c-0.2-2.1-1.7-3.5-3.7-3.5C188.4,91.2,186.9,92.6,186.7,94.7z"></path> </g> </svg> 