<svg width="35" height="35" viewBox="0 0 35 35" fill="none" xmlns="http://www.w3.org/2000/svg">
<g clip-path="url(#clip0_2746_80268)">
<path d="M26.7135 3.71863L26.0937 2.15957C25.9897 1.83236 25.8704 1.5167 25.7279 1.20488C25.6394 1.074 25.5354 0.950814 25.4199 0.839177C24.8655 0.234799 24.0185 -0.0038719 23.2293 0.219401C22.9174 0.31564 22.6133 0.431126 22.3168 0.569709L20.773 1.24338C20.2725 1.46665 19.7489 1.63603 19.2138 1.74767C18.1088 1.97094 16.9731 1.97094 15.872 1.74767C15.333 1.63603 14.8056 1.46665 14.2974 1.24338L12.8921 0.612054C12.8921 0.612054 12.0644 0.219401 11.7834 0.119313C10.8209 -0.0885617 9.83912 0.365684 9.36558 1.22798C9.22313 1.53979 9.10378 1.85546 8.99983 2.18267L8.39539 3.71478C8.19519 4.20752 7.94494 4.67717 7.65234 5.11986C8.12974 5.03902 8.62253 5.11216 9.05758 5.33159L11.3753 6.34402L13.3272 7.18706H13.3965L15.7296 8.19949C16.9 8.70378 18.2282 8.70378 19.3947 8.19949L21.7278 7.17552H21.8125L23.7644 6.31707L26.0398 5.30464C26.4787 5.09677 26.9676 5.02747 27.445 5.10831C27.1562 4.66947 26.9099 4.20367 26.7135 3.71863Z" fill="#1E2647"/>
<path d="M31.2809 26.685L32.8247 26.0691L33.7795 25.7034L34.1299 25.3954C34.7151 24.8142 34.9615 23.9788 34.7882 23.1743L34.3955 22.2889L33.7372 20.7568C33.5177 20.2563 33.3522 19.7328 33.2444 19.1977C32.9056 17.5462 33.075 15.8332 33.7372 14.2818L34.3686 12.8767L34.8614 11.7681C34.9769 10.9982 34.7305 10.2206 34.1876 9.66238C34.0875 9.56614 33.9797 9.4776 33.8642 9.39676L32.7978 8.98871L31.2809 8.38434C30.7881 8.17646 30.3184 7.92239 29.8757 7.62598C29.9527 8.10332 29.8834 8.59221 29.6793 9.03106L28.6668 11.3485L27.7967 13.2579V13.3271L26.7726 15.66C26.2683 16.8302 26.2683 18.1545 26.7726 19.3247L27.7967 21.6575V21.7422L28.6552 23.6939L29.6678 26.0114C29.8795 26.4464 29.9488 26.9391 29.8641 27.4165C30.3107 27.1239 30.7843 26.8775 31.2848 26.685" fill="#1E2647"/>
<path d="M8.30237 31.2503L8.91836 32.7978C9.02231 33.1212 9.14166 33.4407 9.28411 33.7525C9.37266 33.8911 9.47661 34.0181 9.59211 34.1298C10.1503 34.7303 10.9935 34.969 11.7827 34.7496C12.0946 34.6456 12.3987 34.5263 12.6952 34.3838L14.2544 33.7102C14.7549 33.4908 15.2785 33.3252 15.8136 33.2174C17.4653 32.8787 19.1785 33.0481 20.73 33.7102L22.1353 34.3415C22.1353 34.3415 22.963 34.7496 23.2441 34.8342C24.0179 35.0036 24.8187 34.7457 25.35 34.1606C25.4732 34.0297 25.5771 33.8834 25.658 33.7256C25.7966 33.4215 25.9198 33.1058 26.0237 32.7863L26.6282 31.2542C26.8322 30.7614 27.0863 30.2918 27.3866 29.8491C26.9092 29.9261 26.4203 29.8568 25.9814 29.6528L23.6637 28.6403L21.7272 27.7819H21.6579L19.3672 26.6848C18.2006 26.1728 16.8685 26.1728 15.702 26.6848L13.3689 27.7088H13.2842L11.3323 28.5672L9.01461 29.5796C8.57957 29.7913 8.08677 29.8606 7.60938 29.776C7.89042 30.2417 8.12142 30.7345 8.29852 31.2503" fill="#1E2647"/>
<path d="M3.74479 8.2846L2.18556 8.88898L1.23077 9.27008C1.10372 9.35477 0.98437 9.45486 0.880421 9.56265C0.295227 10.1439 0.0488295 10.9793 0.218228 11.7838L0.610924 12.6692L1.28467 14.2129C1.50796 14.7133 1.67351 15.233 1.77746 15.772C2.01616 16.8768 2.01616 18.0239 1.77746 19.1287C1.67351 19.6677 1.51181 20.1912 1.28467 20.6878L0.653273 22.0929L0.160478 23.2016C0.0449796 23.9676 0.295227 24.7414 0.834222 25.2957C0.930471 25.3958 1.03827 25.4843 1.15762 25.5613L2.22406 25.9848L3.75634 26.5892C4.24914 26.7893 4.71883 27.0395 5.16158 27.3321C5.08458 26.8548 5.15773 26.362 5.37333 25.927L6.37047 23.625L7.22901 21.6733V21.5886L8.24155 19.2558C8.74589 18.0855 8.74589 16.7613 8.24155 15.591L7.21746 13.2582L6.35892 11.3065L5.34638 8.98907C5.13463 8.55407 5.06533 8.06133 5.15003 7.58398C4.70343 7.86115 4.23374 8.09212 3.74479 8.2846Z" fill="#1E2647"/>
<path d="M14.2669 1.09327L12.723 0.4196C12.4189 0.265618 12.1032 0.130884 11.7836 0.0115486C11.6258 -0.00384954 11.4641 -0.00384954 11.3062 0.0115486C10.4746 -0.0230972 9.69695 0.4196 9.29656 1.15101C9.14256 1.43973 9.00396 1.73999 8.88846 2.04795L8.27247 3.63396C8.06457 4.14595 7.81047 4.64254 7.51403 5.10834C6.89418 6.06302 6.08184 6.87912 5.12705 7.49505C4.6612 7.79146 4.16456 8.04553 3.65251 8.25341L2.16258 8.84239C2.16258 8.84239 1.29249 9.1388 1.02299 9.27739C0.356948 9.71623 -0.0280486 10.4707 0.010451 11.2637C0.0181509 11.4447 0.0412507 11.6218 0.0797503 11.7988C0.202949 12.1183 0.341548 12.434 0.499396 12.742L1.16159 14.2587C1.33869 14.6706 1.48499 15.0902 1.59664 15.5213C1.60434 15.5983 1.67363 15.6561 1.75063 15.6484C1.78913 15.6484 1.82763 15.6253 1.85073 15.5906C2.12408 15.3058 2.46288 15.0902 2.83247 14.9593L5.2079 14.0316L7.20218 13.2463H7.28688L9.67385 12.307C10.9058 11.8258 11.876 10.8441 12.3419 9.60845L13.2851 7.22173V7.13704L14.0705 5.14298L14.9984 2.76782C15.1369 2.39826 15.3525 2.06335 15.6297 1.78619C15.699 1.75154 15.7298 1.66685 15.6952 1.59756L15.6297 1.53212C15.1639 1.42433 14.7096 1.27805 14.2669 1.09712" fill="#303C8C"/>
<path d="M33.9056 14.2282L34.5793 12.6846L34.9874 11.7453C35.0028 11.5874 35.0028 11.4258 34.9874 11.2679C34.9874 10.4441 34.5677 9.68192 33.8786 9.23152L32.9662 8.88121L31.38 8.26144C30.8872 8.05356 30.4175 7.79949 29.9747 7.50308C29.02 6.8833 28.1999 6.0672 27.5724 5.11636C27.2798 4.66982 27.0257 4.20017 26.8139 3.71128L26.2364 2.22151L25.8014 1.09745C25.3432 0.466122 24.6117 0.0965663 23.8341 0.100416C23.6993 0.0850176 23.5607 0.0850176 23.426 0.100416L22.3595 0.56236L20.7733 1.09745C20.3652 1.27837 19.9417 1.42466 19.5106 1.53244C19.4336 1.54014 19.3758 1.60943 19.3835 1.68643C19.3835 1.72492 19.4066 1.76342 19.4413 1.78651C19.73 2.05598 19.9494 2.39474 20.0726 2.76815L21.012 5.12791L21.7859 7.13737L22.7253 9.52409C23.195 10.7251 24.1421 11.6721 25.3394 12.1533L27.7264 13.0811H27.7957L29.8053 13.8664L32.1808 14.8057C32.5504 14.9365 32.8815 15.1521 33.151 15.437C33.2126 15.4947 33.3127 15.4909 33.3704 15.4293L33.4051 15.3677C33.5437 14.975 33.7131 14.5939 33.9094 14.2282" fill="#303C8C"/>
<path d="M20.7762 33.8641L22.32 34.5377C22.6319 34.6917 22.9514 34.8264 23.2748 34.9458C23.4327 34.9689 23.5944 34.9689 23.7522 34.9458C24.5799 34.9727 25.3499 34.5377 25.7619 33.8217C25.9852 33.3713 26.1546 32.9248 26.1546 32.9248L26.786 31.3388C26.9823 30.8422 27.2364 30.3725 27.5444 29.9337C28.1643 28.979 28.9804 28.159 29.9314 27.5316C30.3741 27.239 30.8477 26.9849 31.3366 26.7732L32.842 26.1958C32.842 26.1958 33.6967 25.8878 33.9777 25.7454C34.6437 25.3104 35.0287 24.5597 34.9902 23.7667C34.9825 23.5858 34.9556 23.4087 34.9055 23.2316C34.8208 22.966 34.4859 22.2923 34.4859 22.2923L33.8815 20.7602C33.7005 20.3522 33.5542 19.9287 33.4464 19.4976C33.4233 19.4167 33.3348 19.3705 33.2539 19.3936L33.1923 19.4283C32.9228 19.7132 32.5917 19.9326 32.2221 20.0596L29.8467 20.9989L27.837 21.7842H27.7677L25.3807 22.7235C24.1834 23.1893 23.2363 24.1363 22.7666 25.3373L21.8234 27.724V27.7933L21.038 29.8028L20.1101 32.178C19.9715 32.5475 19.7521 32.8786 19.4633 33.148C19.394 33.1981 19.3786 33.2943 19.4248 33.3636L19.4633 33.4021C19.9138 33.5176 20.3488 33.6716 20.7685 33.8641" fill="#303C8C"/>
<path d="M1.10494 20.757L0.431196 22.3045L0.0115499 23.2592C-0.00384996 23.4171 -0.00384996 23.5787 0.0115499 23.7366C0.0115499 24.5642 0.427346 25.338 1.12034 25.7884L2.03278 26.1387L3.63436 26.77C4.13101 26.9702 4.6007 27.2243 5.0396 27.5284C5.99439 28.1481 6.81058 28.9604 7.42658 29.9151C7.73842 30.3732 7.99252 30.8698 8.18502 31.3895L8.77406 32.8792L9.20911 33.9879C9.66725 34.6192 10.3987 34.9888 11.1764 34.9849C11.3112 35.0003 11.4498 35.0003 11.5845 34.9849L12.6394 34.5345L14.1563 33.8609C14.5721 33.6838 14.9994 33.5375 15.4345 33.4259C15.5153 33.4028 15.5654 33.3142 15.5384 33.2334L15.5038 33.1718C15.2189 32.9023 14.9956 32.5713 14.857 32.2017L13.9292 29.8265L13.2285 27.7747V27.7054L12.2891 25.3187C11.8232 24.1215 10.8761 23.1745 9.67495 22.7049L7.28798 21.7656H7.20328L5.209 20.9803L2.83357 20.0526C2.46398 19.9178 2.13288 19.6946 1.86338 19.4058C1.80563 19.3327 1.70168 19.3173 1.62853 19.375L1.59773 19.4058C1.47454 19.8678 1.31284 20.322 1.10494 20.7532" fill="#303C8C"/>
</g>
<defs>
<clipPath id="clip0_2746_80268">
<rect width="35" height="35" fill="white"/>
</clipPath>
</defs>
</svg>
